<svg xmlns="http://www.w3.org/2000/svg" viewBox="0 0 64 64" role="img" aria-labelledby="title desc">
  <title id="title">YS Favicon</title>
  <desc id="desc">Monogram favicon with letters Y and S</desc>
  <defs>
    <linearGradient id="bg" x1="0" y1="0" x2="1" y2="1">
      <stop offset="0%" stop-color="#0f172a" />
      <stop offset="100%" stop-color="#111827" />
    </linearGradient>
    <linearGradient id="fg" x1="0" y1="0" x2="1" y2="1">
      <stop offset="0%" stop-color="#34f5cd" />
      <stop offset="100%" stop-color="#7cffdf" />
    </linearGradient>
  </defs>
  <rect x="2" y="2" width="60" height="60" rx="14" fill="url(#bg)" />
  <path d="M12 15h8l7 10 7-10h8L31 30v19h-8V30L12 15z" fill="url(#fg)" />
  <path
    d="M52 19c0 3.9-3.1 7-7 7h-4c-1.1 0-2 .9-2 2s.9 2 2 2h4c5 0 9 4 9 9s-4 9-9 9h-12v-7h12c1.1 0 2-.9 2-2s-.9-2-2-2h-4c-5 0-9-4-9-9s4-9 9-9h11v0z"
    fill="url(#fg)"
  />
</svg>
