<svg xmlns="http://www.w3.org/2000/svg" viewBox="0 0 64 64" role="img" aria-labelledby="title desc">
  <title id="title">YS Favicon</title>
  <desc id="desc">Editorial monogram favicon with hazard stripe</desc>
  <rect x="2" y="2" width="60" height="60" rx="14" fill="#131110" />
  <rect x="8" y="10" width="48" height="6" fill="#ffd128" />
  <rect x="8" y="12" width="48" height="2" fill="#000000" opacity="0.82" />
  <path d="M13 20h8l7 10 7-10h8L32 35v14h-8V35L13 20z" fill="#c6f24e" />
  <path
    d="M50 24c0 3-2.4 5.4-5.4 5.4h-4c-1 0-1.8.8-1.8 1.8s.8 1.8 1.8 1.8h4c4.8 0 8.8 3.9 8.8 8.8s-3.9 8.8-8.8 8.8H33v-7h11.6c1 0 1.8-.8 1.8-1.8S45.6 40 44.6 40h-4c-4.8 0-8.8-3.9-8.8-8.8s3.9-8.8 8.8-8.8H50z"
    fill="#f2ede2"
  />
</svg>
