<svg xmlns="http://www.w3.org/2000/svg" viewBox="0 0 512 512" role="img" aria-labelledby="title desc">
  <title id="title">Youssef Selk Icon 512</title>
  <desc id="desc">Editorial YS app icon in 512 size</desc>
  <rect x="20" y="20" width="472" height="472" rx="98" fill="#131110" />
  <rect x="64" y="74" width="384" height="40" fill="#ffd128" />
  <rect x="64" y="84" width="384" height="20" fill="#000000" opacity="0.82" />
  <path d="M96 150h64l56 80 56-80h64L256 270v116h-56V270L96 150z" fill="#c6f24e" />
  <path
    d="M401 182c0 24-19.2 43.2-43.2 43.2h-30.6c-7.4 0-13.4 6-13.4 13.4s6 13.4 13.4 13.4h30.6c38.8 0 70.4 31.5 70.4 70.4s-31.5 70.4-70.4 70.4h-91.2v-48h91.2c7.4 0 13.4-6 13.4-13.4s-6-13.4-13.4-13.4h-30.6c-38.8 0-70.4-31.5-70.4-70.4s31.5-70.4 70.4-70.4H401z"
    fill="#f2ede2"
  />
</svg>
